<svg width="104" height="22" viewBox="0 0 104 22" fill="none" xmlns="http://www.w3.org/2000/svg">
<path d="M13.328 9.576C13.328 10.552 13.104 11.448 12.656 12.264C12.208 13.064 11.52 13.712 10.592 14.208C9.664 14.704 8.512 14.952 7.136 14.952H4.592V21H0.488V4.152H7.136C8.48 4.152 9.616 4.384 10.544 4.848C11.472 5.312 12.168 5.952 12.632 6.768C13.096 7.584 13.328 8.52 13.328 9.576ZM6.824 11.688C7.608 11.688 8.192 11.504 8.576 11.136C8.96 10.768 9.152 10.248 9.152 9.576C9.152 8.904 8.96 8.384 8.576 8.016C8.192 7.648 7.608 7.464 6.824 7.464H4.592V11.688H6.824ZM21.5606 21.192C20.2486 21.192 19.0646 20.912 18.0086 20.352C16.9686 19.792 16.1446 18.992 15.5366 17.952C14.9446 16.912 14.6486 15.696 14.6486 14.304C14.6486 12.928 14.9526 11.72 15.5606 10.68C16.1686 9.624 17.0006 8.816 18.0566 8.256C19.1126 7.696 20.2966 7.416 21.6086 7.416C22.9206 7.416 24.1046 7.696 25.1606 8.256C26.2166 8.816 27.0486 9.624 27.6566 10.68C28.2646 11.72 28.5686 12.928 28.5686 14.304C28.5686 15.68 28.2566 16.896 27.6326 17.952C27.0246 18.992 26.1846 19.792 25.1126 20.352C24.0566 20.912 22.8726 21.192 21.5606 21.192ZM21.5606 17.64C22.3446 17.64 23.0086 17.352 23.5526 16.776C24.1126 16.2 24.3926 15.376 24.3926 14.304C24.3926 13.232 24.1206 12.408 23.5766 11.832C23.0486 11.256 22.3926 10.968 21.6086 10.968C20.8086 10.968 20.1446 11.256 19.6166 11.832C19.0886 12.392 18.8246 13.216 18.8246 14.304C18.8246 15.376 19.0806 16.2 19.5926 16.776C20.1206 17.352 20.7766 17.64 21.5606 17.64ZM38.9298 21L34.8498 15.384V21H30.7458V3.24H34.8498V13.056L38.9058 7.608H43.9698L38.4018 14.328L44.0178 21H38.9298ZM58.2057 14.088C58.2057 14.472 58.1818 14.872 58.1338 15.288H48.8458C48.9098 16.12 49.1738 16.76 49.6378 17.208C50.1178 17.64 50.7018 17.856 51.3898 17.856C52.4138 17.856 53.1258 17.424 53.5258 16.56H57.8938C57.6698 17.44 57.2618 18.232 56.6698 18.936C56.0938 19.64 55.3658 20.192 54.4858 20.592C53.6058 20.992 52.6218 21.192 51.5338 21.192C50.2218 21.192 49.0538 20.912 48.0298 20.352C47.0058 19.792 46.2058 18.992 45.6298 17.952C45.0538 16.912 44.7658 15.696 44.7658 14.304C44.7658 12.912 45.0458 11.696 45.6058 10.656C46.1818 9.616 46.9818 8.816 48.0058 8.256C49.0298 7.696 50.2058 7.416 51.5338 7.416C52.8298 7.416 53.9818 7.688 54.9898 8.232C55.9978 8.776 56.7818 9.552 57.3418 10.56C57.9178 11.568 58.2057 12.744 58.2057 14.088ZM54.0058 13.008C54.0058 12.304 53.7658 11.744 53.2858 11.328C52.8058 10.912 52.2058 10.704 51.4858 10.704C50.7978 10.704 50.2138 10.904 49.7338 11.304C49.2698 11.704 48.9818 12.272 48.8698 13.008H54.0058ZM54.2938 4.176L48.5098 6.6V3.768L54.2938 0.983999V4.176ZM59.5548 14.28C59.5548 12.904 59.8108 11.696 60.3228 10.656C60.8508 9.616 61.5628 8.816 62.4588 8.256C63.3548 7.696 64.3548 7.416 65.4588 7.416C66.3388 7.416 67.1388 7.6 67.8588 7.968C68.5948 8.336 69.1708 8.832 69.5868 9.456V3.24H73.6908V21H69.5868V19.08C69.2028 19.72 68.6508 20.232 67.9308 20.616C67.2268 21 66.4028 21.192 65.4588 21.192C64.3548 21.192 63.3548 20.912 62.4588 20.352C61.5628 19.776 60.8508 18.968 60.3228 17.928C59.8108 16.872 59.5548 15.656 59.5548 14.28ZM69.5868 14.304C69.5868 13.28 69.2988 12.472 68.7228 11.88C68.1628 11.288 67.4748 10.992 66.6588 10.992C65.8428 10.992 65.1468 11.288 64.5708 11.88C64.0108 12.456 63.7308 13.256 63.7308 14.28C63.7308 15.304 64.0108 16.12 64.5708 16.728C65.1468 17.32 65.8428 17.616 66.6588 17.616C67.4748 17.616 68.1628 17.32 68.7228 16.728C69.2988 16.136 69.5868 15.328 69.5868 14.304ZM89.2839 14.088C89.2839 14.472 89.2599 14.872 89.2119 15.288H79.9239C79.9879 16.12 80.2519 16.76 80.7159 17.208C81.1959 17.64 81.7799 17.856 82.4679 17.856C83.4919 17.856 84.2039 17.424 84.6039 16.56H88.9719C88.7479 17.44 88.3399 18.232 87.7479 18.936C87.1719 19.64 86.4439 20.192 85.5639 20.592C84.6839 20.992 83.6999 21.192 82.6119 21.192C81.2999 21.192 80.1319 20.912 79.1079 20.352C78.0839 19.792 77.2839 18.992 76.7079 17.952C76.1319 16.912 75.8439 15.696 75.8439 14.304C75.8439 12.912 76.1239 11.696 76.6839 10.656C77.2599 9.616 78.0599 8.816 79.0839 8.256C80.1079 7.696 81.2839 7.416 82.6119 7.416C83.9079 7.416 85.0599 7.688 86.0679 8.232C87.0759 8.776 87.8599 9.552 88.4199 10.56C88.9959 11.568 89.2839 12.744 89.2839 14.088ZM85.0839 13.008C85.0839 12.304 84.8439 11.744 84.3639 11.328C83.8839 10.912 83.2839 10.704 82.5639 10.704C81.8759 10.704 81.2919 10.904 80.8119 11.304C80.3479 11.704 80.0599 12.272 79.9479 13.008H85.0839ZM99.3689 21L96.8009 17.28L94.6409 21H90.2009L94.6169 14.16L90.0809 7.608H94.6889L97.2569 11.304L99.4169 7.608H103.857L99.3689 14.352L103.977 21H99.3689Z" fill="white"/>
</svg>
