<svg width="16" height="16" viewBox="0 0 16 16" fill="none" xmlns="http://www.w3.org/2000/svg">
<g id="search">
<path id="Vector" d="M12.9 13.6166L8.88333 9.59994C8.55 9.88883 8.16111 10.1138 7.71667 10.2749C7.27222 10.4361 6.8 10.5166 6.3 10.5166C5.1 10.5166 4.08333 10.0999 3.25 9.26661C2.41667 8.43328 2 7.42772 2 6.24994C2 5.07217 2.41667 4.06661 3.25 3.23328C4.08333 2.39994 5.09444 1.98328 6.28333 1.98328C7.46111 1.98328 8.46389 2.39994 9.29167 3.23328C10.1194 4.06661 10.5333 5.07217 10.5333 6.24994C10.5333 6.72772 10.4556 7.18883 10.3 7.63328C10.1444 8.07772 9.91111 8.49439 9.6 8.88328L13.65 12.8999C13.75 12.9888 13.8 13.1027 13.8 13.2416C13.8 13.3805 13.7444 13.5055 13.6333 13.6166C13.5333 13.7166 13.4111 13.7666 13.2667 13.7666C13.1222 13.7666 13 13.7166 12.9 13.6166ZM6.28333 9.51661C7.18333 9.51661 7.95 9.19717 8.58333 8.55828C9.21667 7.91939 9.53333 7.14994 9.53333 6.24994C9.53333 5.34994 9.21667 4.5805 8.58333 3.94161C7.95 3.30272 7.18333 2.98328 6.28333 2.98328C5.37222 2.98328 4.59722 3.30272 3.95833 3.94161C3.31944 4.5805 3 5.34994 3 6.24994C3 7.14994 3.31944 7.91939 3.95833 8.55828C4.59722 9.19717 5.37222 9.51661 6.28333 9.51661Z" fill="#DC0A2D"/>
</g>
</svg>
